<svg width="16" height="15" viewBox="0 0 16 15" fill="none" xmlns="http://www.w3.org/2000/svg">
<g clip-path="url(#clip0_548_74)">
<path d="M0.88453 7.75015L3.25786 9.37516L2.35653 11.992C2.21087 12.3979 2.20903 12.837 2.35127 13.244C2.49351 13.6509 2.77223 14.0038 3.14586 14.2502C3.5131 14.5044 3.95813 14.6406 4.41463 14.6385C4.87114 14.6363 5.31469 14.4959 5.6792 14.2383L7.99986 12.637L10.3212 14.2364C10.6878 14.4892 11.1304 14.6265 11.5854 14.6286C12.0405 14.6306 12.4845 14.4974 12.8537 14.248C13.2229 13.9986 13.4982 13.6458 13.6401 13.2405C13.7819 12.8351 13.783 12.398 13.6432 11.992L12.7419 9.37516L15.1152 7.75015C15.4813 7.49922 15.7534 7.14625 15.8928 6.74165C16.0321 6.33705 16.0315 5.90152 15.891 5.49727C15.7505 5.09302 15.4774 4.74073 15.1105 4.49072C14.7437 4.24071 14.302 4.10576 13.8485 4.10515H10.9332L10.0485 1.52015C9.90941 1.11325 9.63604 0.758288 9.26784 0.506445C8.89964 0.254602 8.45564 0.118896 7.99986 0.118896C7.54409 0.118896 7.10008 0.254602 6.73188 0.506445C6.36369 0.758288 6.09032 1.11325 5.9512 1.52015L5.06653 4.10515H2.15386C1.70036 4.10576 1.25866 4.24071 0.89185 4.49072C0.525042 4.74073 0.251891 5.09302 0.111411 5.49727C-0.0290685 5.90152 -0.0296903 6.33705 0.109635 6.74165C0.248959 7.14625 0.521104 7.49922 0.887197 7.75015H0.88453Z" fill="#6A4028"/>
</g>
<defs>
<clipPath id="clip0_548_74">
<rect width="16" height="15" fill="white"/>
</clipPath>
</defs>
</svg>
