<svg width="24" height="22" viewBox="0 0 24 22" fill="none" xmlns="http://www.w3.org/2000/svg">
<path d="M12.0915 14.9779C14.5367 14.9779 16.519 13.1062 16.519 10.7975C16.519 8.48879 14.5367 6.61719 12.0915 6.61719C9.6463 6.61719 7.66406 8.48879 7.66406 10.7975C7.66406 13.1062 9.6463 14.9779 12.0915 14.9779Z" stroke="#484848" stroke-width="2.5" stroke-linecap="round" stroke-linejoin="round"/>
<path d="M2.12891 14.9775V6.6168C2.12891 3.73087 4.60671 1.39136 7.66322 1.39136H16.5181C19.5746 1.39136 22.0524 3.73087 22.0524 6.6168V14.9775C22.0524 17.8634 19.5746 20.203 16.5181 20.203H7.66322C4.60671 20.203 2.12891 17.8634 2.12891 14.9775Z" stroke="#484848" stroke-width="2.5"/>
<path d="M18.1797 5.06013L18.1915 5.0481" stroke="#484848" stroke-width="2.5" stroke-linecap="round" stroke-linejoin="round"/>
</svg>
