<svg width="27" height="21" viewBox="0 0 27 21" fill="none" xmlns="http://www.w3.org/2000/svg">
<path d="M25.5948 1.40152C25.5948 1.40152 23.4351 2.6062 22.2342 2.94765C21.5895 2.24786 20.7329 1.75187 19.78 1.52675C18.8272 1.30164 17.8241 1.35826 16.9065 1.68897C15.9888 2.01968 15.2008 2.60851 14.6491 3.37582C14.0974 4.14315 13.8087 5.05193 13.8218 5.97927V6.98981C11.9409 7.03585 10.0772 6.64199 8.39663 5.84329C6.71601 5.04459 5.27069 3.86586 4.18937 2.41206C4.18937 2.41206 -0.091717 11.507 9.54074 15.5491C7.33654 16.9618 4.71077 17.6701 2.04883 17.5702C11.6813 22.6229 23.4543 17.5702 23.4543 5.94895C23.4533 5.66747 23.4246 5.38668 23.3687 5.11021C24.461 4.09309 25.5948 1.40152 25.5948 1.40152Z" stroke="#484848" stroke-width="2.5" stroke-linecap="round" stroke-linejoin="round"/>
</svg>
