<svg width="28" height="19" viewBox="0 0 28 19" fill="none" xmlns="http://www.w3.org/2000/svg">
<path d="M16.2634 9.44273L11.9844 11.7514V7.13403L16.2634 9.44273Z" fill="#484848" stroke="#484848" stroke-width="2.5" stroke-linecap="round" stroke-linejoin="round"/>
<path d="M1.59375 10.259V8.62551C1.59375 5.28327 1.59375 3.61216 2.70078 2.53692C3.80783 1.46168 5.55071 1.41514 9.03644 1.32205C10.6882 1.27794 12.3754 1.24634 13.8196 1.24634C15.2637 1.24634 16.951 1.27794 18.6027 1.32205C22.0884 1.41514 23.8313 1.46168 24.9383 2.53692C26.0454 3.61216 26.0454 5.28327 26.0454 8.62551V10.259C26.0454 13.6012 26.0454 15.2724 24.9383 16.3475C23.8313 17.4228 22.0885 17.4693 18.6028 17.5625C16.951 17.6066 15.2637 17.6382 13.8196 17.6382C12.3754 17.6382 10.6881 17.6066 9.03633 17.5625C5.55064 17.4693 3.80781 17.4228 2.70077 16.3475C1.59375 15.2724 1.59375 13.6012 1.59375 10.259Z" stroke="#484848" stroke-width="2.5"/>
</svg>
